<svg width="55" height="48" viewBox="0 0 55 48" fill="none" xmlns="http://www.w3.org/2000/svg">
<rect width="54.0182" height="48" rx="4" fill="#F0633C"/>
<path d="M12.437 25.0273C12.437 25.0273 17.1884 27.1109 27.1442 16.5889C37.1 6.06692 41.0542 10.1933 42.9022 12.7479C44.7503 15.298 44.7548 20.8194 41.4936 25.2312C41.951 20.6066 42.1413 16.7021 41.0769 15.8868C41.489 17.7983 41.0768 23.7364 38.3637 25.0636C38.8348 20.3755 36.8961 17.6896 35.5237 17.0373C36.8961 19.5331 36.3798 25.2176 36.3798 25.2176C36.3798 25.2176 26.8633 24.4294 18.6559 33.0853C27.9731 28.2342 36.8871 27.4461 41.7608 29.67C42.2273 32.9177 42.9475 35.7395 42.9475 35.7395C42.9475 35.7395 30.1427 32.5327 19.2312 42.3163C30.2197 36.7224 39.3647 37.6057 45.4659 38.7652C43.6088 28.6962 43.5409 28.3927 43.5409 28.3927C43.5409 28.3927 52.627 13.5043 44.859 7.47559C37.0864 1.44685 30.736 7.47559 25.7129 14.383C20.6897 21.2905 15.6076 25.0273 12.437 25.0319V25.0273Z" fill="#FFFAF3"/>
<path d="M17.5145 19.8232C17.5145 19.8232 7.065 18.1065 6.06851 27.2787C5.10373 36.1338 14.6473 35.3819 14.6473 35.3819L16.2236 41.8364C16.2236 41.8364 24.1864 35.3094 30.4281 34.938C30.4281 34.938 25.2418 33.9597 17.3152 38.2627C16.0152 33.2802 15.8386 32.7231 15.8386 32.7231C15.8386 32.7231 10.6841 34.6255 8.53708 29.4981C6.39011 24.3707 10.7248 19.6601 17.5145 19.8232Z" fill="#FFFAF3"/>
</svg>
